<svg width="50" height="50" viewBox="0 0 50 50" fill="none" xmlns="http://www.w3.org/2000/svg">
<ellipse cx="35.7434" cy="36.4583" rx="5.10621" ry="5.20833" stroke="#222222" stroke-width="2"/>
<path d="M42.8921 43.75L39.8284 40.625" stroke="#222222" stroke-width="2" stroke-linecap="round"/>
<path fill-rule="evenodd" clip-rule="evenodd" d="M8.16992 12.1666C8.16992 8.39539 8.16992 6.50977 9.34149 5.3382C10.5131 4.16663 12.3987 4.16663 16.1699 4.16663H32.8497C36.6209 4.16663 38.5065 4.16663 39.6781 5.3382C40.8497 6.50977 40.8497 8.39539 40.8497 12.1666V30.7444C39.5066 29.5086 37.7213 28.75 35.7435 28.75C31.4962 28.75 28.1372 32.248 28.1372 36.4583C28.1372 40.6686 31.4962 44.1666 35.7435 44.1666C36.934 44.1666 38.0548 43.8918 39.0513 43.4034L39.9626 44.3329C39.8764 44.4486 39.7818 44.558 39.6781 44.6617C38.5065 45.8333 36.6209 45.8333 32.8497 45.8333H16.1699C12.3987 45.8333 10.5131 45.8333 9.34149 44.6617C8.16992 43.4901 8.16992 41.6045 8.16992 37.8333V12.1666ZM35.7435 33.75C34.3505 33.75 33.1372 34.9156 33.1372 36.4583C33.1372 38.001 34.3505 39.1666 35.7435 39.1666C37.1364 39.1666 38.3497 38.001 38.3497 36.4583C38.3497 34.9156 37.1364 33.75 35.7435 33.75ZM16.3399 11.5C15.7876 11.5 15.3399 11.9477 15.3399 12.5C15.3399 13.0522 15.7876 13.5 16.3399 13.5H24.5098C25.0621 13.5 25.5098 13.0522 25.5098 12.5C25.5098 11.9477 25.0621 11.5 24.5098 11.5H16.3399ZM16.3399 19.8333C15.7876 19.8333 15.3399 20.281 15.3399 20.8333C15.3399 21.3856 15.7876 21.8333 16.3399 21.8333L28.5948 21.8333C29.147 21.8333 29.5948 21.3856 29.5948 20.8333C29.5948 20.281 29.147 19.8333 28.5948 19.8333L16.3399 19.8333ZM16.3399 28.1666C15.7876 28.1666 15.3399 28.6143 15.3399 29.1666C15.3399 29.7189 15.7876 30.1666 16.3399 30.1666H22.4673C23.0196 30.1666 23.4673 29.7189 23.4673 29.1666C23.4673 28.6143 23.0196 28.1666 22.4673 28.1666H16.3399Z" fill="#222222"/>
</svg>
