<svg xmlns="http://www.w3.org/2000/svg" width="100" height="100" viewBox="0 0 100 100"><rect width="100%" height="100%" fill="#DDDDDD"/><path fill="#999999" d="M25.34 52.01h-2.39v4.38h-2.42V44.3h4.81q2.08 0 3.28 1.07 1.19 1.06 1.19 2.79 0 1.74-1.19 2.79-1.2 1.06-3.28 1.06Zm-2.39-5.84v3.97h2.39q1.01 0 1.54-.55.52-.55.52-1.41 0-.87-.52-1.44t-1.54-.57h-2.39Zm13.43 1.17-.26 2.15-.89-.02q-.53 0-.88.22-.35.23-.53.63v6.07H31.4v-8.98h2.25l.11 1.33q.31-.71.82-1.1.5-.4 1.15-.4.19 0 .34.03.15.03.31.07Zm.6 4.65v-.17q0-2.01 1.12-3.29 1.12-1.29 3.1-1.29 2 0 3.12 1.28 1.13 1.28 1.13 3.3v.17q0 2.03-1.12 3.3-1.13 1.27-3.11 1.27-1.99 0-3.12-1.27-1.12-1.27-1.12-3.3Zm2.41-.17v.17q0 1.23.44 1.97.43.74 1.39.74.94 0 1.37-.74.44-.75.44-1.97v-.17q0-1.2-.44-1.95-.44-.76-1.39-.76-.93 0-1.37.76-.44.76-.44 1.95Zm7.18.33v-.18q0-2.12.92-3.42.92-1.31 2.59-1.31.67 0 1.21.29.54.29.94.83v-4.92h2.44v12.95h-2.09l-.2-1.1q-.42.63-1 .95-.57.32-1.32.32-1.65 0-2.57-1.21-.92-1.21-.92-3.2Zm2.42-.18v.18q0 1.18.4 1.85.4.68 1.29.68.53 0 .92-.21t.63-.62v-3.83q-.24-.42-.63-.66-.39-.23-.9-.23-.89 0-1.3.79-.41.78-.41 2.05Zm13.26 4.42-.22-1.29q-.42.7-1.05 1.08-.64.38-1.47.38-1.42 0-2.22-.9-.81-.91-.81-2.83v-5.42h2.42v5.44q0 .98.33 1.4.33.43.98.43.58 0 1-.19.41-.18.68-.55v-6.53h2.42v8.98h-2.06Zm7.66-1.69q.64 0 1.03-.37.4-.38.4-1.01h2.19l.03.05q.03 1.36-1.03 2.28-1.05.91-2.62.91-2.01 0-3.1-1.27-1.09-1.27-1.09-3.26v-.25q0-1.98 1.09-3.26 1.08-1.28 3.09-1.28 1.66 0 2.68.95 1.01.95.98 2.49l-.02.05h-2.2q0-.7-.39-1.16-.38-.46-1.05-.46-.96 0-1.36.75-.39.74-.39 1.92v.25q0 1.21.39 1.94.4.73 1.37.73Zm5.48-9.49h2.43v2.2h1.51v1.7h-1.51v4.57q0 .53.21.75.22.23.58.23.2 0 .33-.03.14-.02.32-.07l.21 1.76q-.37.12-.71.18-.35.06-.76.06-1.25 0-1.93-.68-.68-.69-.68-2.19v-4.58h-1.31v-1.7h1.31v-2.2Z"/></svg>